<?xml version="1.0" encoding="UTF-8"?>
<svg xmlns="http://www.w3.org/2000/svg" version="1.1" viewBox="0 0 1670.7 4884.5">
  <defs>
    <style>
      .cls-1 {
        fill: none;
        stroke: #000;
        stroke-miterlimit: 10;
      }

      .cls-2 {
        opacity: .3;
      }
    </style>
  </defs>
  <!-- Generator: Adobe Illustrator 28.7.1, SVG Export Plug-In . SVG Version: 1.2.0 Build 142)  -->
  <g>
    <g id="Capa_1">
      <g id="Capa_3" class="cls-2">
        <rect class="cls-1" x=".5" y=".5" width="1669.7" height="4883.5"/>
        <line class="cls-1" x1="278.8" y1="4884" x2="278.8" y2=".5"/>
        <line class="cls-1" x1="557.1" y1="4884" x2="557.1" y2=".5"/>
        <line class="cls-1" x1="835.4" y1="4884" x2="835.4" y2=".5"/>
        <line class="cls-1" x1="1113.7" y1="4884" x2="1113.7" y2=".5"/>
        <line class="cls-1" x1="1391.9" y1="4884" x2="1391.9" y2=".5"/>
        <line class="cls-1" x1=".5" y1="444.4" x2="1670.2" y2="444.4"/>
        <line class="cls-1" x1=".5" y1="888.3" x2="1670.2" y2="888.3"/>
        <line class="cls-1" x1=".5" y1="1332.2" x2="1670.2" y2="1332.2"/>
        <line class="cls-1" x1=".5" y1="1776.1" x2="1670.2" y2="1776.1"/>
        <line class="cls-1" x1=".5" y1="2220" x2="1670.2" y2="2220"/>
        <line class="cls-1" x1=".5" y1="2663.9" x2="1670.2" y2="2663.9"/>
        <line class="cls-1" x1=".5" y1="3107.8" x2="1670.2" y2="3107.8"/>
        <line class="cls-1" x1=".5" y1="3551.7" x2="1670.2" y2="3551.7"/>
        <line class="cls-1" x1=".5" y1="3995.6" x2="1670.2" y2="3995.6"/>
        <line class="cls-1" x1=".5" y1="4439.5" x2="1670.2" y2="4439.5"/>
      </g>
    </g>
  </g>
</svg>