<?xml version="1.0" encoding="UTF-8"?>
<svg id="Capa_2" xmlns="http://www.w3.org/2000/svg" viewBox="0 0 1670.73 4883.95">
  <defs>
    <style>
      .cls-1 {
        fill: none;
        stroke: #000;
        stroke-miterlimit: 10;
      }

      .cls-2 {
        opacity: .35;
      }
    </style>
  </defs>
  <g id="Capa_5" class="cls-2">
    <g>
      <rect class="cls-1" x=".5" y=".5" width="278.29" height="443.9"/>
      <rect class="cls-1" x="278.79" y=".5" width="278.29" height="443.9"/>
      <rect class="cls-1" x="557.08" y=".5" width="278.29" height="443.9"/>
      <rect class="cls-1" x="835.36" y=".5" width="278.29" height="443.9"/>
      <rect class="cls-1" x="1113.65" y=".5" width="278.29" height="443.9"/>
      <rect class="cls-1" x="1391.94" y=".5" width="278.29" height="443.9"/>
      <rect class="cls-1" x=".5" y="444.4" width="278.29" height="443.9"/>
      <rect class="cls-1" x="278.79" y="444.4" width="278.29" height="443.9"/>
      <rect class="cls-1" x="557.08" y="444.4" width="278.29" height="443.9"/>
      <rect class="cls-1" x="835.36" y="444.4" width="278.29" height="443.9"/>
      <rect class="cls-1" x="1113.65" y="444.4" width="278.29" height="443.9"/>
      <rect class="cls-1" x="1391.94" y="444.4" width="278.29" height="443.9"/>
      <rect class="cls-1" x=".5" y="888.31" width="278.29" height="443.9"/>
      <rect class="cls-1" x="278.79" y="888.31" width="278.29" height="443.9"/>
      <rect class="cls-1" x="557.08" y="888.31" width="278.29" height="443.9"/>
      <rect class="cls-1" x="835.36" y="888.31" width="278.29" height="443.9"/>
      <rect class="cls-1" x="1113.65" y="888.31" width="278.29" height="443.9"/>
      <rect class="cls-1" x="1391.94" y="888.31" width="278.29" height="443.9"/>
      <rect class="cls-1" x=".5" y="1332.21" width="278.29" height="443.9"/>
      <rect class="cls-1" x="278.79" y="1332.21" width="278.29" height="443.9"/>
      <rect class="cls-1" x="557.08" y="1332.21" width="278.29" height="443.9"/>
      <rect class="cls-1" x="835.36" y="1332.21" width="278.29" height="443.9"/>
      <rect class="cls-1" x="1113.65" y="1332.21" width="278.29" height="443.9"/>
      <rect class="cls-1" x="1391.94" y="1332.21" width="278.29" height="443.9"/>
      <rect class="cls-1" x=".5" y="1776.12" width="278.29" height="443.9"/>
      <rect class="cls-1" x="278.79" y="1776.12" width="278.29" height="443.9"/>
      <rect class="cls-1" x="557.08" y="1776.12" width="278.29" height="443.9"/>
      <rect class="cls-1" x="835.36" y="1776.12" width="278.29" height="443.9"/>
      <rect class="cls-1" x="1113.65" y="1776.12" width="278.29" height="443.9"/>
      <rect class="cls-1" x="1391.94" y="1776.12" width="278.29" height="443.9"/>
      <rect class="cls-1" x=".5" y="2220.02" width="278.29" height="443.9"/>
      <rect class="cls-1" x="278.79" y="2220.02" width="278.29" height="443.9"/>
      <rect class="cls-1" x="557.08" y="2220.02" width="278.29" height="443.9"/>
      <rect class="cls-1" x="835.36" y="2220.02" width="278.29" height="443.9"/>
      <rect class="cls-1" x="1113.65" y="2220.02" width="278.29" height="443.9"/>
      <rect class="cls-1" x="1391.94" y="2220.02" width="278.29" height="443.9"/>
      <rect class="cls-1" x=".5" y="2663.93" width="278.29" height="443.9"/>
      <rect class="cls-1" x="278.79" y="2663.93" width="278.29" height="443.9"/>
      <rect class="cls-1" x="557.08" y="2663.93" width="278.29" height="443.9"/>
      <rect class="cls-1" x="835.36" y="2663.93" width="278.29" height="443.9"/>
      <rect class="cls-1" x="1113.65" y="2663.93" width="278.29" height="443.9"/>
      <rect class="cls-1" x="1391.94" y="2663.93" width="278.29" height="443.9"/>
      <rect class="cls-1" x=".5" y="3107.83" width="278.29" height="443.9"/>
      <rect class="cls-1" x="278.79" y="3107.83" width="278.29" height="443.9"/>
      <rect class="cls-1" x="557.08" y="3107.83" width="278.29" height="443.9"/>
      <rect class="cls-1" x="835.36" y="3107.83" width="278.29" height="443.9"/>
      <rect class="cls-1" x="1113.65" y="3107.83" width="278.29" height="443.9"/>
      <rect class="cls-1" x="1391.94" y="3107.83" width="278.29" height="443.9"/>
      <rect class="cls-1" x=".5" y="3551.74" width="278.29" height="443.9"/>
      <rect class="cls-1" x="278.79" y="3551.74" width="278.29" height="443.9"/>
      <rect class="cls-1" x="557.08" y="3551.74" width="278.29" height="443.9"/>
      <rect class="cls-1" x="835.36" y="3551.74" width="278.29" height="443.9"/>
      <rect class="cls-1" x="1113.65" y="3551.74" width="278.29" height="443.9"/>
      <rect class="cls-1" x="1391.94" y="3551.74" width="278.29" height="443.9"/>
      <rect class="cls-1" x=".5" y="3995.64" width="278.29" height="443.9"/>
      <rect class="cls-1" x="278.79" y="3995.64" width="278.29" height="443.9"/>
      <rect class="cls-1" x="557.08" y="3995.64" width="278.29" height="443.9"/>
      <rect class="cls-1" x="835.36" y="3995.64" width="278.29" height="443.9"/>
      <rect class="cls-1" x="1113.65" y="3995.64" width="278.29" height="443.9"/>
      <rect class="cls-1" x="1391.94" y="3995.64" width="278.29" height="443.9"/>
      <rect class="cls-1" x=".5" y="4439.54" width="278.29" height="443.9"/>
      <rect class="cls-1" x="278.79" y="4439.54" width="278.29" height="443.9"/>
      <rect class="cls-1" x="557.08" y="4439.54" width="278.29" height="443.9"/>
      <rect class="cls-1" x="835.36" y="4439.54" width="278.29" height="443.9"/>
      <rect class="cls-1" x="1113.65" y="4439.54" width="278.29" height="443.9"/>
      <rect class="cls-1" x="1391.94" y="4439.54" width="278.29" height="443.9"/>
    </g>
  </g>
</svg>